<?xml version="1.0" encoding="utf-8"?>
<?xml-stylesheet type="text/xsl" href="rss1.xsl"?>
<rss version="2.0" xmlns:atom="http://www.w3.org/2005/Atom" xmlns:content="http://purl.org/rss/1.0/modules/content/" xmlns:dc="http://purl.org/dc/elements/1.1/" xmlns:media="http://search.yahoo.com/mrss/">
<channel>
 <title>Getty</title>
 <link>http://www.gettyimg.com/</link>
 <atom:link href="http://www.gettyimg.com/" rel="self" type="application/rss+xml" />

 
                <item>
                <title><![CDATA[【HD Live Performances】FEED - UCL 2023.10.06 Final Kick Off Show (Burna Boy, Anitta, Alesso) 2160p 4.2.2-10bits SDR HEVC 50fps-TSS]]></title>
                <link><![CDATA[https://sharemania.us/threads/ucl-2023-10-06-final-kick-off-show-burna-boy-anitta-alesso-2160p-4-2-2-10bits-sdr-hevc-50fps-tss.222462/]]></link>
                <description><![CDATA[<article>
<blockquote class="messageText SelectQuoteContainer ugc baseHtml">
<img src="https://i.imgur.com/5rFhVRx.png" class="bbCodeImage LbImage" alt="[​IMG]" data-url="https://i.imgur.com/5rFhVRx.png" style=""> <br>
<div class="ToggleTriggerAnchor bbCodeSpoilerContainer">
<button type="button" class="button bbCodeSpoilerButton ToggleTrigger Tooltip JsOnly" data-target="> .SpoilerTarget"><span>Spoiler: <span class="SpoilerTitle">MediaInfo</span></span></button>
<div class="SpoilerTarget bbCodeSpoilerText">General<br>
Unique ID : 308887393165146237057041223331139160633 (0xE8618C49567D8EEB471394DFB2660A39)<br>
Complete name :UCL 2023.10.06 Final Kick Off Show (Burna Boy, Anitta, Alesso) 2160p 4.2.2-10bits SDR HEVC 50fps-TSS.mkv<br>
Format : Matroska<br>
Format version : Version 4<br>
File size : 2.14 GiB<br>
Duration : 6 min 17 s<br>
Overall bit rate : 48.8 Mb/s<br>
Writing application : Lavf58.76.100<br>
Writing library : Lavf58.76.100<br>
ErrorDetectionType : Per level 1<br>
Video<br>
ID : 1<br>
Format : HEVC<br>
Format/Info : High Efficiency Video Coding<br>
Format profile : Format Range@L5.1@Main<br>
Codec ID : V_MPEGH/ISO/HEVC<br>
Duration : 6 min 16 s<br>
Bit rate : 47.5 Mb/s<br>
Width : 3 840 pixels<br>
Height : 2 160 pixels<br>
Display aspect ratio : 16:9<br>
Frame rate mode : Constant<br>
Frame rate : 50.000 FPS<br>
Standard : Component<br>
Color space : YUV<br>
Chroma subsampling : 4:2:2 (Type 2)<br>
Bit depth : 10 bits<br>
Bits/(Pixel*Frame) : 0.114<br>
Stream size : 2.08 GiB (97%)<br>
Default : Yes<br>
Forced : No<br>
Color range : Limited<br>
Color primaries : BT.709<br>
Transfer characteristics : BT.709<br>
Matrix coefficients : BT.709<br>
Audio<br>
ID : 2<br>
Format : MPEG Audio<br>
Format version : Version 1<br>
Format profile : Layer 2<br>
Format settings : Dual mono<br>
Codec ID : A_MPEG/L2<br>
Codec ID/Hint : MP2<br>
Duration : 6 min 17 s<br>
Bit rate mode : Constant<br>
Bit rate : 384 kb/s<br>
Channel(s) : 2 channels<br>
Sampling rate : 48.0 kHz<br>
Compression mode : Lossy<br>
Delay relative to video : -54 ms<br>
Stream size : 17.3 MiB (1%)<br>
Default : Yes<br>
Forced : No</div>
</div><br>
<div class="bbCodeBlock bbCodeVfcHH HiddenContent">
<div class="attribution type">Hidden Content:</div>
<blockquote>You must either reply or click 'Like' to see the hidden information contained here.</blockquote>
</div>
<div class="messageTextEndMarker">&nbsp;</div>
</blockquote>
</article>]]></description>
                <author><![CDATA[theslothsidd]]></author>
                </item>

                </channel></rss>